# xmcd CD database file
#
# Track frame offsets:
#	150
#	12614
#	40189
#	62039
#	91375
#	108776
#	140754
#	165089
#	186708
#	195402
#	223407
#	265157
#	288285
#
# Disc length: 3982 seconds
#
# Revision: 1
# Processed by: cddbd v1.4PL0 Copyright (c) Steve Scherf et al.
# Submitted via: CDex 1.50Beta7
#
DISCID=c00f8c0d
DTITLE=Pat Metheny Group - Secret Story
DYEAR=1992
DGENRE=Jazz
TTITLE0=above the treetops
TTITLE1=facing west
TTITLE2=cathedral in a suitcase
TTITLE3=finding and believing
TTITLE4=the longest summer
TTITLE5=sunlight
TTITLE6=rain river
TTITLE7=always and forever
TTITLE8=see the world
TTITLE9=as a flower blossoms
TTITLE10=antonia
TTITLE11=the truth will always be
TTITLE12=tell her you saw me
EXTD=YEAR: 1992
EXTT0=
EXTT1=
EXTT2=
EXTT3=
EXTT4=
EXTT5=
EXTT6=
EXTT7=
EXTT8=
EXTT9=
EXTT10=
EXTT11=
EXTT12=
PLAYORDER=
